<svg xmlns="http://www.w3.org/2000/svg" xmlns:xlink="http://www.w3.org/1999/xlink" height="250"
    viewBox="-100 -100 800 800">
    <defs>
        <style>
            #front {
                animation: fadeInUp 0.3s cubic-bezier(.46, -0.14, .69, 1.1);
            }

            #back {
                animation: fadeInUp 0.5s cubic-bezier(.46, -0.14, .69, 1.1);
            }

            @keyframes fadeInUp {
                from {
                    opacity: 0;
                    transform: translateY(20%) scale(0.85);
                }

                to {
                    opacity: 1;
                    transform: translateY(0) scale(1);
                }
            }

            #mid g {
                animation: dropIn 2s cubic-bezier(.46, -0.14, .69, 1.1) infinite;
                animation-direction: alternate;
                animation-delay: calc(var(--order) * 0.3s);
            }

            @keyframes dropIn {
                20% {
                    transform: translateY(0)
                }

                80% {
                    transform: translateY(5%)
                }
            }

            .a {
                fill: #95ccff;
            }

            .b {
                fill: url(#a);
            }

            .c {
                fill: url(#b);
            }

            .d {
                fill: url(#c);
            }

            .e {
                fill: url(#d);
            }

            .f {
                fill: #fff;
            }

            .g {
                filter: url(#e);
            }
            
            .order1 {
              --order: 1
            }

            .order2 {
              --order: 2
            }

            .order1half {
              --order: 1.5
            }
        </style>
        <linearGradient id="a" x1="0.5" x2="0.5" y2="1" gradientUnits="objectBoundingBox">
            <stop offset="0" stop-color="#ffd200" />
            <stop offset="1" stop-color="#f18f09" />
        </linearGradient>
        <linearGradient id="b" x1="0.5" x2="0.5" y2="1" gradientUnits="objectBoundingBox">
            <stop offset="0" stop-color="#54b50e" />
            <stop offset="1" stop-color="#10597d" />
        </linearGradient>
        <linearGradient id="c" x1="0.5" x2="0.5" y2="1" gradientUnits="objectBoundingBox">
            <stop offset="0" stop-color="#e15113" />
            <stop offset="1" stop-color="#c03307" />
        </linearGradient>
        <linearGradient id="d" x1="0.039" y1="0.034" x2="0.97" y2="0.97" gradientUnits="objectBoundingBox">
            <stop offset="0" stop-color="#3c68ff" />
            <stop offset="1" stop-color="#2e8de6" />
        </linearGradient>
        <filter id="e" x="82.242" y="151.836" width="124.558" height="176.246" filterUnits="userSpaceOnUse">
            <feOffset dy="1" input="SourceAlpha" />
            <feGaussianBlur stdDeviation="5" result="f" />
            <feFlood flood-opacity="0.161" />
            <feComposite operator="in" in2="f" />
            <feComposite in="SourceGraphic" />
        </filter>
    </defs>
    <g transform="translate(-4940.592 1451)">
        <g id="back" class="order1">
            <path class="a"
                d="M58.836,0H367.727a58.836,58.836,0,0,1,58.836,58.836v380.8a58.836,58.836,0,0,1-58.836,58.836C164.637,498.475,0,333.838,0,130.747V58.836A58.836,58.836,0,0,1,58.836,0Z"
                transform="translate(5066.436 -1451)" />

            <g id="mid">
                <g class="order2">
                    <path class="b"
                        d="M49.03,0a49.03,49.03,0,0,1,49.03,49.03V326.869a49.03,49.03,0,0,1-98.061,0V49.03A49.03,49.03,0,0,1,49.03,0Z"
                        transform="translate(5354.081 -1401.97)" />
                </g>
                <g class="order1half">
                    <path class="c"
                        d="M49.03,0a49.03,49.03,0,0,1,49.03,49.03V187.95A49.03,49.03,0,0,1,0,187.95V49.03A49.03,49.03,0,0,1,49.03,0Z"
                        transform="translate(5354.081 -1263.05)" />
                </g>
                <g class="order1">
                    <path class="d" d="M49.03,0A49.03,49.03,0,1,1,0,49.03,49.03,49.03,0,0,1,49.03,0Z"
                        transform="translate(5354.081 -1124.131)" />
                </g>
            </g>
        </g>
        <g id="front" class="order2">
            <path class="e"
                d="M32.687,0H254.958a32.687,32.687,0,0,1,32.687,32.687V256.592a32.687,32.687,0,0,1-32.687,32.687H32.687A32.687,32.687,0,0,1,0,256.592V32.687A32.687,32.687,0,0,1,32.687,0Z"
                transform="translate(4940.592 -1351.305)" />
            <g class="g" transform="matrix(1, 0, 0, 1, 4940.59, -1451)">
                <path class="f" d="M7.441,56.763H102V31.527H38.049V-89.483H7.441Z"
                    transform="translate(89.8 255.32)" />
            </g>
        </g>
    </g>
</svg>