<svg xmlns="http://www.w3.org/2000/svg" xmlns:xlink="http://www.w3.org/1999/xlink" width="49.698" height="41.149" viewBox="0 0 49.698 41.149"><defs><style>.a{fill:#95ccff;}.b{fill:url(#a);}.c{fill:url(#b);}.d{fill:url(#c);}.e{fill:url(#d);}.f{fill:#fff;}.g{filter:url(#e);}</style><linearGradient id="a" x1="0.5" x2="0.5" y2="1" gradientUnits="objectBoundingBox"><stop offset="0" stop-color="#ffd200"/><stop offset="1" stop-color="#f18f09"/></linearGradient><linearGradient id="b" x1="0.5" x2="0.5" y2="1" gradientUnits="objectBoundingBox"><stop offset="0" stop-color="#54b50e"/><stop offset="1" stop-color="#10597d"/></linearGradient><linearGradient id="c" x1="0.5" x2="0.5" y2="1" gradientUnits="objectBoundingBox"><stop offset="0" stop-color="#e15113"/><stop offset="1" stop-color="#c03307"/></linearGradient><linearGradient id="d" x1="0.039" y1="0.034" x2="0.97" y2="0.97" gradientUnits="objectBoundingBox"><stop offset="0" stop-color="#3c68ff"/><stop offset="1" stop-color="#2e8de6"/></linearGradient><filter id="e" x="0" y="0" width="37.208" height="41.149" filterUnits="userSpaceOnUse"><feOffset dy="1" input="SourceAlpha"/><feGaussianBlur stdDeviation="5" result="f"/><feFlood flood-opacity="0.161"/><feComposite operator="in" in2="f"/><feComposite in="SourceGraphic"/></filter></defs><g transform="translate(-4933.005 1452.358)"><g transform="translate(4950.185 -1451)"><path class="a" d="M4.485,0H28.033a4.485,4.485,0,0,1,4.485,4.485v29.03A4.485,4.485,0,0,1,28.033,38,28.033,28.033,0,0,1,0,9.967V4.485A4.485,4.485,0,0,1,4.485,0Z" transform="translate(0 0)"/><path class="b" d="M3.738,0A3.738,3.738,0,0,1,7.475,3.738v21.18a3.738,3.738,0,1,1-7.475,0V3.738A3.738,3.738,0,0,1,3.738,0Z" transform="translate(21.928 3.738)"/><path class="c" d="M3.738,0A3.738,3.738,0,0,1,7.475,3.738v10.59a3.738,3.738,0,0,1-7.475,0V3.738A3.738,3.738,0,0,1,3.738,0Z" transform="translate(21.928 14.328)"/><path class="d" d="M3.738,0A3.738,3.738,0,1,1,0,3.738,3.738,3.738,0,0,1,3.738,0Z" transform="translate(21.928 24.918)"/></g><g transform="translate(4940.592 -1443.4)"><path class="e" d="M2.492,0H19.436a2.492,2.492,0,0,1,2.492,2.492V19.561a2.492,2.492,0,0,1-2.492,2.492H2.492A2.492,2.492,0,0,1,0,19.561V2.492A2.492,2.492,0,0,1,2.492,0Z" transform="translate(0 0)"/><g class="g" transform="matrix(1, 0, 0, 1, -7.59, -8.96)"><path class="f" d="M7.441-78.334H14.65v-1.924H9.775v-9.225H7.441Z" transform="translate(7.56 103.48)"/></g></g></g></svg>